<?xml version="1.0" encoding="utf-8"?>
<!-- Generator: Adobe Illustrator 25.2.1, SVG Export Plug-In . SVG Version: 6.00 Build 0)  -->
<svg version="1.1" id="Layer_1" xmlns="http://www.w3.org/2000/svg" xmlns:xlink="http://www.w3.org/1999/xlink" x="0px" y="0px"
	 viewBox="0 0 1366 768" style="enable-background:new 0 0 1366 768;" xml:space="preserve">
<style type="text/css">
	.st0{fill:#FDDDF0;}
	.st1{fill:#FED9EF;}
	.st2{fill:#E199C1;}
	.st3{fill:#FAD6F2;}
	.st4{fill:#AA88A1;}
	.st5{fill:#FCDBF2;}
	.st6{fill:#A3A4BE;}
	.st7{fill:#778AC3;}
	.st8{fill:#6B78AA;}
	.st9{fill:#687AAF;}
	.st10{fill:#7280AC;}
	.st11{fill:url(#SVGID_1_);}
	.st12{fill:url(#SVGID_2_);}
	.st13{fill:url(#SVGID_3_);}
	.st14{fill:url(#SVGID_4_);}
	.st15{fill:#8397D2;}
	.st16{fill:#D9A6C4;}
	.st17{fill:#895674;}
	.st18{fill:#A07A93;}
	.st19{fill:#AC5487;}
	.st20{fill:#CA629F;}
	.st21{fill:#F9F9F9;}
	.st22{fill:#CD9CBB;}
	.st23{fill:#DB9CC6;}
	.st24{fill:#A3839C;}
	.st25{fill:#FFFFFF;}
	.st26{fill:#AC92AB;}
</style>
<polygon class="st0" points="850.47,519.24 398.64,520.86 399.3,502.56 845.05,500.56 "/>
<polygon class="st1" points="788.45,293.28 468.54,294.3 459.09,280.77 788.45,277.71 "/>
<polygon class="st2" points="721.49,278.8 482.94,284.93 482.94,273.12 721.49,273.12 "/>
<polygon class="st3" points="963.3,683.82 482.94,683.82 461.67,559.11 963,552 "/>
<path class="st4" d="M718.81,159.55c0,0,41.43,7.4,41.94,8.67c0.51,1.28,3.45-14.81,3.45-14.81l4.85-8.17c0,0,5.87-4.21,2.04,2.43
	l-3.06,5.87l-3.06,10.47l-0.13,6.77c0,0,0.77,0.26,1.15,1.66c0.38,1.4,1.02,22.09,1.02,22.09l5.38,90.41h-4.36l-5.23-43.26
	l-2.94-69.11c0,0-32.74-10.34-40.94-8.55"/>
<polyline class="st5" points="862.43,571.33 850.5,559.62 850.5,533.6 862.43,533.6 "/>
<polygon class="st0" points="858.6,422.17 414.75,422.17 410.66,409.39 846.07,412.73 "/>
<polygon class="st0" points="854.92,381.98 412.94,382.77 431.43,376.31 853.22,375.28 "/>
<polygon class="st6" points="429.69,382.78 878.99,381.98 881.52,383.41 430.35,384.37 "/>
<polygon class="st0" points="850,468 398.52,468.28 399.3,446.41 845.05,444.41 "/>
<polygon class="st0" points="829.61,316.56 407,333 406.12,310.88 827.91,309.86 "/>
<path class="st0" d="M837.78,347.78L430,368c-1.7,0-27.38-21.81-25.78-22.37l10.08-3.52l421.79-1.02L837.78,347.78z"/>
<polygon class="st7" points="522.67,291.03 534.41,342.6 539.35,348.73 542.07,374.43 547.69,382.26 550.49,410.26 558.59,425 
	560.93,445.69 572.54,467.03 575.49,502.45 587.18,520.65 592.79,564.05 682.84,683.82 399.3,683.82 399.3,84.82 469.05,84.82 
	486.24,103.11 484.37,289.84 "/>
<polygon class="st8" points="822.31,444.51 417.59,446.33 417.59,424.31 816.23,425.3 "/>
<polygon class="st6" points="398.64,520.86 850.47,519.26 850.47,525.16 398.64,524.39 "/>
<polygon class="st9" points="850.5,559.62 399.3,559.88 398.64,524.39 850.5,525.16 "/>
<polygon class="st8" points="860.2,505.5 399.3,500.56 399.3,472.19 850.47,470.26 "/>
<polygon class="st6" points="398.64,465.96 847.95,464.38 850.47,470.26 399.3,472.19 "/>
<polygon class="st8" points="851.72,412.14 430.4,409.52 432.11,384.32 830.07,382.77 "/>
<polygon class="st8" points="815.26,375.28 444.03,375.64 444.71,349.93 792.18,348.58 "/>
<polygon class="st8" points="820.62,341.08 456.28,341.08 456.28,318.09 796.37,315.72 "/>
<polygon class="st8" points="805.88,311.76 461.05,313.01 461.73,289.88 791.6,289.16 "/>
<polygon class="st10" points="963.42,165.24 893.9,165.24 894.53,84.9 963.42,84.9 "/>
<linearGradient id="SVGID_1_" gradientUnits="userSpaceOnUse" x1="907.1548" y1="203.6207" x2="977.0234" y2="203.6207">
	<stop  offset="0" style="stop-color:#C3CAE2"/>
	<stop  offset="0.1911" style="stop-color:#DAC6DA"/>
	<stop  offset="0.7648" style="stop-color:#D0C7DB"/>
	<stop  offset="0.881" style="stop-color:#BFCAE1"/>
	<stop  offset="1" style="stop-color:#BFCAE1"/>
</linearGradient>
<polygon class="st11" points="963,242 893.49,241.84 893.9,165.24 963.36,165.24 "/>
<linearGradient id="SVGID_2_" gradientUnits="userSpaceOnUse" x1="928.2472" y1="425.0711" x2="928.2472" y2="241.8371">
	<stop  offset="0" style="stop-color:#554960"/>
	<stop  offset="0.1911" style="stop-color:#5E6784"/>
	<stop  offset="0.4609" style="stop-color:#647197"/>
	<stop  offset="0.7559" style="stop-color:#6575A0"/>
	<stop  offset="0.9508" style="stop-color:#6E7CA7"/>
</linearGradient>
<polygon class="st12" points="963,425 893.49,425.07 893.49,241.84 963,242 "/>
<linearGradient id="SVGID_3_" gradientUnits="userSpaceOnUse" x1="928.2472" y1="455" x2="928.2472" y2="425">
	<stop  offset="0" style="stop-color:#554960"/>
	<stop  offset="0.1911" style="stop-color:#5E6784"/>
	<stop  offset="0.4609" style="stop-color:#647197"/>
	<stop  offset="0.7559" style="stop-color:#6575A0"/>
	<stop  offset="0.9508" style="stop-color:#6E7CA7"/>
</linearGradient>
<polygon class="st13" points="963,455 893.49,454.56 893.49,425.07 963,425 "/>
<linearGradient id="SVGID_4_" gradientUnits="userSpaceOnUse" x1="912.7939" y1="631.9647" x2="912.7939" y2="454">
	<stop  offset="0" style="stop-color:#7282B3"/>
	<stop  offset="0.1911" style="stop-color:#616889"/>
	<stop  offset="0.4609" style="stop-color:#4E4058"/>
	<stop  offset="0.7559" style="stop-color:#3F293D"/>
	<stop  offset="0.9508" style="stop-color:#3A2534"/>
</linearGradient>
<polygon class="st14" points="963.16,631.96 862.43,571.33 893.49,454.56 963,454 "/>
<polygon class="st15" points="893.05,571.71 862.43,571.03 862.43,84.82 894.53,84.82 "/>
<polygon class="st5" points="862.43,571.33 779.26,308.43 776.45,85.2 862.43,85.2 "/>
<polygon class="st6" points="417.59,420.77 814,422 816,425 417.59,424.31 "/>
<polyline class="st5" points="769.05,145.24 745.6,164.58 760.75,168.22 "/>
<polygon class="st16" points="694.2,217.85 665.81,216.09 668.67,194.98 695.18,194.98 "/>
<rect x="690.53" y="229.28" class="st17" width="27.4" height="15.96"/>
<polygon class="st18" points="693.01,215.85 671.91,213.79 674.63,199.33 695.18,199.33 "/>
<polygon class="st19" points="698.82,157.24 688.28,240.6 704.4,241.67 706.96,228.01 "/>
<polygon class="st20" points="720.45,229.28 699.52,229.28 699.52,157.28 718.75,157.11 "/>
<rect x="699.3" y="225.28" class="st21" width="20.94" height="0.68"/>
<path class="st22" d="M748.45,209.62c0,0,0.64,2.78-2.95,3.19c-3.64,0.42-16.64-0.97-16.63-1.11l-9.01-3.66l-0.05-2.13l27.97,3.86"
	/>
<rect x="697.73" y="156.73" class="st23" width="1.79" height="8.09"/>
<rect x="699.52" y="156.73" class="st23" width="19.23" height="0.77"/>
<path class="st24" d="M760.92,198.26c0,0-4.55,9.02-10.68,10.89c-6.13,1.87-12.21,1.7-14.96,0.68s-15.38-3.91-15.38-3.91l-0.1-4.05
	l15.84,3.19l21.02-8.09l4.66-12.33L760.92,198.26z"/>
<polygon class="st25" points="705.74,235.44 688.98,235.28 688.99,234.73 705.87,234.83 "/>
<polygon class="st4" points="675.26,284.65 672.28,284.05 673.64,215.79 678.21,216.41 "/>
<polygon class="st4" points="688.19,166.47 682.16,164.82 678.24,284.65 681.3,284.93 "/>
<path class="st4" d="M682.16,164.82c0,0,1.19-6.04,5.28-6.21c4.09-0.17,10.81-0.43,10.81-0.43l-0.51,6.64c0,0-11-1.72-9.54,1.65"/>
<path class="st5" d="M744.78,168.22l-9.5,27.51v10.09c0,0,7.21,1.6,11.36,0c4.15-1.6,14.38-5.87,13.79-19.56
	c-0.58-13.69-0.58-13.69-0.58-13.69"/>
<polyline class="st26" points="735.28,194.86 719.55,190.85 719.66,195.8 735.28,199.11 "/>
<polyline class="st4" points="694.53,191.18 686.77,190.85 686.77,188.56 694.82,188.87 "/>
<path class="st4" d="M676.07,194.98c0,0-0.23-5.23,5.23-5.83c5.47-0.6,5.6-0.59,5.6-0.59l-0.13,2.29l-5.28,0.33h-0.99
	c0,0-2.34,2.01-1.28,3.8C680.28,196.77,676.07,194.98,676.07,194.98"/>
</svg>
