<?xml version="1.0" encoding="utf-8"?>
<!-- Generator: Adobe Illustrator 25.2.1, SVG Export Plug-In . SVG Version: 6.00 Build 0)  -->
<svg version="1.1" id="Layer_1" xmlns="http://www.w3.org/2000/svg" xmlns:xlink="http://www.w3.org/1999/xlink" x="0px" y="0px"
	 viewBox="0 0 595.28 841.89" style="enable-background:new 0 0 595.28 841.89;" xml:space="preserve">
<style type="text/css">
	.st0{fill:#E7CCDA;}
	.st1{fill:#A55C70;}
	.st2{fill:#E9D9E4;}
	.st3{fill:#ECDCE7;}
	.st4{fill:#EEA7B4;}
	.st5{fill:#EBBDC9;}
	.st6{fill:#DB829B;}
	.st7{fill:#CF94A3;}
	.st8{fill:#EECAD5;}
	.st9{fill:#D9B2C7;}
	.st10{fill:#D49FAD;}
	.st11{fill:#EBD8E4;}
	.st12{fill:#B96880;}
	.st13{fill:#68283E;}
	.st14{fill:#E496AC;}
	.st15{fill:#723644;}
	.st16{fill:#CC819A;}
	.st17{fill:#E7D1DE;}
	.st18{fill:#894E5F;}
	.st19{fill:#DDB7CB;}
	.st20{fill:#DEBFCF;}
	.st21{fill:#9D5A67;}
	.st22{fill:#010101;}
	.st23{fill:#E5C5CC;}
	.st24{fill:#E8D2DF;}
	.st25{fill:#E69EB1;}
	.st26{fill:#BA7688;}
	.st27{fill:#DFBDCE;}
	.st28{fill:#EECAD8;}
	.st29{fill:#FFFFFF;}
	.st30{fill:#E6C9D9;}
	.st31{fill:#A07884;}
	.st32{fill:#FDFEFF;}
	.st33{fill:#9E5B68;}
	.st34{fill:#CCBECD;}
	.st35{fill:#CC8EA3;}
	.st36{fill:#DACDE1;}
	.st37{fill:#FFFEFE;}
	.st38{fill:#B789A1;}
	.st39{fill:#926179;}
	.st40{fill:#8C6E94;}
	.st41{fill:#030303;}
	.st42{fill:#070707;}
	.st43{fill:#C4A5B2;}
	.st44{fill:#BC9FAC;}
	.st45{fill:#AF98A5;}
	.st46{fill:#2A1014;}
</style>
<polygon class="st0" points="381.49,842.23 223.02,842.23 226.16,765.32 381.49,745.89 "/>
<polygon class="st1" points="488.7,353.96 436.47,346.07 389.22,293.13 436.47,281.21 "/>
<polygon class="st2" points="427.28,151.85 387.11,165.47 389.94,293.13 436.47,281.21 "/>
<polygon class="st3" points="427.28,151.85 481.06,234.23 488.7,353.96 436.47,281.21 "/>
<polygon class="st4" points="240.56,538.87 210.08,517.11 214.42,353.96 249.73,382.54 "/>
<polygon class="st5" points="244.46,307.86 221.06,283.34 226.74,156.44 253.57,185.72 "/>
<polygon class="st6" points="585.66,508.02 542.51,447.51 528.72,308.87 573.32,368.53 "/>
<polygon class="st7" points="221.06,283.34 90.63,326.34 114.54,346.07 243.74,307.11 "/>
<polygon class="st8" points="210.08,517.11 64.65,549.33 79.39,395.77 214.42,353.96 "/>
<polygon class="st9" points="452.89,602.74 512.85,650.74 524.98,839.94 463.62,805.21 "/>
<polygon class="st4" points="223.87,819.26 195.11,812.11 203.24,604.48 232.38,619.09 "/>
<polygon class="st8" points="195.11,812.11 45.78,825.19 55.14,631.65 203.24,604.48 "/>
<polygon class="st10" points="95.78,568.17 233.32,533.7 210.08,517.11 64.65,549.33 "/>
<polygon class="st11" points="377.7,642.38 229.97,669 233.54,497.38 371.96,465.38 "/>
<polygon class="st12" points="597.74,841.13 577.04,831.44 573.49,777.55 597.74,795 "/>
<polygon class="st13" points="524.82,837.32 577.04,831.44 597.74,841.13 525.06,842.23 "/>
<polygon class="st14" points="564.47,691.6 516.21,699.26 501.55,526.4 549.15,517.47 "/>
<polygon class="st15" points="598.94,721.47 580.66,735.55 516.21,699.26 564.47,691.6 "/>
<polygon class="st16" points="598.94,721.47 564.47,691.6 549.15,517.47 593.57,573.38 "/>
<polygon class="st6" points="576.96,831.44 524.82,837.32 520.73,782.91 573.41,777.55 "/>
<polygon class="st17" points="463.62,805.21 407.36,813.13 400.33,610.75 452.89,602.74 "/>
<polygon class="st18" points="524.98,839.94 463.62,805.21 407.36,813.13 478.51,839.17 "/>
<polygon class="st19" points="407.36,813.13 381.49,842.23 381.49,745.89 406.34,760.87 "/>
<polygon class="st20" points="505.34,571.09 448.89,514.91 438.68,352.19 494.84,413.99 "/>
<polygon class="st21" points="505.34,571.09 460.13,579.09 398.42,525.9 448.89,514.91 "/>
<polygon class="st22" points="301.77,750.78 304.87,750.46 305.21,755.43 301.77,755.87 "/>
<polygon class="st22" points="232.88,764.48 230.93,764.73 230.73,759.45 232.88,758.87 "/>
<polygon class="st23" points="67.79,834.74 223.87,819.26 195.11,812.11 45.78,825.19 "/>
<g>
	<polygon class="st11" points="371.61,378.46 240.56,415.33 244.81,271 366.6,232.15 	"/>
</g>
<polygon class="st11" points="395.02,401.85 366.51,378.87 366.6,232.15 389.11,258.88 "/>
<polygon class="st24" points="448.89,514.91 398.42,525.9 393.25,363.39 438.68,352.19 "/>
<polygon class="st25" points="542.51,447.51 497.47,457.98 485.83,319.85 528.72,308.87 "/>
<polygon class="st26" points="240.56,415.33 369.89,378.57 395.11,402.56 266.77,435.51 "/>
<polygon class="st27" points="402.06,660.57 377.03,642.51 371.96,465.38 397.63,490.32 "/>
<polygon class="st28" points="221.06,283.34 90.63,326.34 105.66,199.85 226.74,156.44 "/>
<polygon class="st29" points="296.25,358.73 270.08,366.74 271.51,328.23 296.25,321.7 "/>
<polygon class="st30" points="269.56,391.84 264.28,390.49 266.25,324.06 272.32,324.45 "/>
<polygon class="st31" points="298.25,386.17 264.28,395.77 265.81,397.57 297.25,389.02 "/>
<polygon class="st32" points="296.25,384.26 269.56,391.84 270.47,369.55 296.25,361.75 "/>
<polygon class="st33" points="585.66,508.02 544.3,513.19 497.47,457.98 542.51,447.51 "/>
<polygon class="st34" points="294.08,383.87 272.32,389.96 272.32,370.74 294.12,364.17 "/>
<polygon class="st35" points="296.25,314.68 266.25,324.06 272.13,328.72 296.25,321.7 "/>
<polygon class="st36" points="294.12,357.95 272.32,363.9 273.67,330.12 294.47,324.06 "/>
<polygon class="st37" points="356.72,748.96 301.77,755.87 301.83,717.53 357.49,710.23 "/>
<polygon class="st38" points="301.77,755.87 295.53,756.65 295.53,713.89 301.77,713.21 "/>
<polygon class="st39" points="357.49,704.28 301.77,713.21 301.77,716.45 357.49,708.96 "/>
<polygon class="st40" points="356.12,749.07 303.49,755.65 303.49,718.83 356.12,711.77 "/>
<polygon class="st22" points="377.73,741.21 379.69,741.19 379.69,746.12 377.73,746.36 "/>
<polygon class="st22" points="398.76,752.29 400.89,752.29 401.74,758.1 398.76,756.3 "/>
<polygon class="st22" points="379.69,737.3 226.6,756.15 226.6,760.15 379.69,741.19 "/>
<path class="st22" d="M420.73,701.11"/>
<path class="st22" d="M443.69,714.77"/>
<polygon class="st22" points="402.66,754.53 379.69,740.87 379.69,737.3 402.8,752.03 "/>
<polygon class="st41" points="204.34,595.47 59.96,623.55 59.96,626.49 204.34,598.91 "/>
<polygon class="st22" points="225.07,614.45 204.17,599.77 204.34,595.47 225.4,609.26 "/>
<polygon class="st22" points="128.89,612.19 131.06,612.19 131.06,617.73 128.89,618.12 "/>
<polygon class="st22" points="221.23,611.26 225.34,610.24 224.85,616.36 221.23,616.36 "/>
<polygon class="st22" points="201.4,597.51 204.34,597.51 204.34,605.04 201.4,604.82 "/>
<rect x="59.96" y="625.72" class="st22" width="1.81" height="4.71"/>
<polygon class="st22" points="388.94,255.64 367.31,229.26 367.62,225 388.55,251.3 "/>
<polygon class="st42" points="451.64,593.66 398.42,605.6 399.59,608.36 451.84,597.11 "/>
<polygon class="st42" points="507.33,641.16 451.64,593.66 451.88,598.01 507.65,643.98 "/>
<polygon class="st22" points="366.15,228.68 368.96,228.68 368.85,234.83 366.15,234.23 "/>
<rect x="263.45" y="261.72" class="st22" width="1.96" height="3.74"/>
<rect x="310" y="246.61" class="st22" width="2.72" height="5.16"/>
<rect x="506.25" y="642.74" transform="matrix(0.9807 0.1957 -0.1957 0.9807 136.0026 -86.7165)" class="st42" width="1.25" height="4.41"/>
<polygon class="st22" points="450.43,596.04 452.85,597.28 452.85,603.94 450.43,603.94 "/>
<polygon class="st22" points="367.62,225 247.5,265.06 247.27,268.21 367.31,229.26 "/>
<polygon class="st43" points="368.11,423.61 337.91,430.15 337.91,411.51 367.53,404.36 "/>
<polygon class="st44" points="374.45,424.66 367.53,424.66 367.53,404.36 374.45,407.43 "/>
<polygon class="st45" points="342.42,431.34 374.45,424.66 368.11,423.61 337.91,430.15 "/>
<polygon class="st46" points="354.77,422.74 339.66,425.81 339.7,413.98 354.77,410.09 "/>
</svg>
